<svg version="1.1" id="Layer_1" xmlns="http://www.w3.org/2000/svg" xmlns:xlink="http://www.w3.org/1999/xlink" x="0px" y="0px"
	 width="100%" viewBox="0 0 1254 1254" enable-background="new 0 0 1254 1254" xml:space="preserve">
<path fill="#FEFEFE" opacity="1.000000" stroke="none" 
	d="
M836.000000,1255.000000 
	C557.333313,1255.000000 279.166656,1255.000000 1.000000,1255.000000 
	C1.000000,837.000000 1.000000,419.000000 1.000000,1.000000 
	C419.000000,1.000000 837.000000,1.000000 1255.000000,1.000000 
	C1255.000000,419.000000 1255.000000,837.000000 1255.000000,1255.000000 
	C1115.500000,1255.000000 976.000000,1255.000000 836.000000,1255.000000 
M765.766541,962.755798 
	C764.376038,960.883118 763.216064,958.767883 761.550415,957.184631 
	C757.083130,952.938293 755.876770,947.873535 756.055237,941.837891 
	C756.394897,930.349060 756.460938,918.826477 755.957092,907.347961 
	C755.656250,900.494507 756.745728,895.016724 763.214844,891.422363 
	C765.343262,890.239685 767.052368,888.235962 768.813110,886.468018 
	C794.133423,861.043823 807.117798,830.485229 807.025879,794.494629 
	C807.002747,785.432434 807.022400,776.370056 807.022400,766.832092 
	C808.106018,767.401672 808.610901,767.520508 808.885254,767.838379 
	C809.754395,768.844910 810.593262,769.887451 811.344971,770.983887 
	C820.668091,784.583435 827.326050,799.394409 830.786987,815.509094 
	C831.374023,818.242676 830.724670,821.749451 829.445679,824.295837 
	C819.330505,844.434204 818.660217,864.446472 830.973328,883.684692 
	C845.568665,906.488831 876.926514,905.927490 891.360046,883.056213 
	C903.307129,864.125000 902.055786,836.043884 887.226074,818.922363 
	C881.674622,812.512817 878.171387,805.677429 875.431885,798.008057 
	C873.867432,793.628113 871.970337,789.356628 870.043335,785.118042 
	C855.906311,754.022766 836.940186,726.449158 809.449219,705.697449 
	C795.042725,694.822632 779.369446,685.615479 767.059631,672.103394 
	C766.400696,671.380188 765.427307,670.953247 764.655334,670.321167 
	C763.581970,669.442322 762.560608,668.499939 761.398865,667.481201 
	C771.494995,665.368652 781.248840,663.902466 790.647644,661.200745 
	C800.209473,658.452148 809.676819,655.051208 818.740173,650.951355 
	C849.596130,636.993774 874.557495,616.098755 891.762695,586.605652 
	C905.333557,563.342346 910.047729,537.906921 909.888367,511.262695 
	C909.714966,482.264618 909.483398,453.259491 909.918701,424.267090 
	C910.464661,387.904419 901.103516,354.382782 882.090210,323.594971 
	C855.547791,280.615204 817.122070,253.997498 768.241699,242.033234 
	C764.395264,241.091736 762.187805,242.174652 760.778198,245.671539 
	C760.282410,246.901474 759.568298,248.043610 758.951416,249.224533 
	C745.944641,274.126862 725.745605,286.757568 697.298889,286.564880 
	C651.136108,286.252167 604.968140,286.235474 558.805542,286.556824 
	C529.683228,286.759552 509.332184,273.494354 496.238434,248.074570 
	C492.535645,240.886078 492.605499,240.850082 484.834869,242.699539 
	C405.721466,261.528900 346.975067,335.042084 346.334503,416.346924 
	C346.070587,449.843536 345.895630,483.350494 346.422089,516.841064 
	C346.966492,551.472473 357.712006,582.616638 381.098541,608.734741 
	C408.818970,639.692871 443.818542,657.503601 484.297058,665.240723 
	C486.603271,665.681580 488.889313,666.227966 491.924683,666.885498 
	C463.097351,688.271484 447.871246,716.338562 444.804779,751.413879 
	C425.796936,749.082214 410.584442,740.797729 398.161041,726.969666 
	C394.879547,723.317139 393.382507,719.602722 393.397003,714.494751 
	C393.454865,694.086731 387.426514,675.646606 372.883545,660.890259 
	C363.053772,650.916260 350.735504,646.632324 336.795959,649.721924 
	C320.600311,653.311462 309.629730,667.227112 308.293030,684.791016 
	C306.298920,710.993103 321.437927,737.757629 344.997559,749.764465 
	C346.312866,750.434753 347.569061,751.313171 348.669250,752.299438 
	C365.385132,767.283569 384.827148,777.285339 406.455200,782.710144 
	C418.976013,785.850708 431.845032,787.603027 444.988770,790.060791 
	C444.819916,789.718933 445.068970,790.000305 445.087097,790.295776 
	C445.209167,792.289124 445.289185,794.285095 445.370300,796.280823 
	C447.001678,836.429504 462.836517,869.561707 493.987854,895.247986 
	C495.601624,896.578674 496.880341,899.300110 496.917938,901.399109 
	C497.174530,915.727417 496.942932,930.063904 497.129639,944.394348 
	C497.185303,948.663513 495.605682,951.828613 493.305634,955.330566 
	C488.413300,962.779358 482.934052,970.286987 480.153503,978.593445 
	C472.503326,1001.446716 483.297638,1023.881592 511.947540,1022.550415 
	C524.088013,1021.986389 536.275757,1022.404785 548.441895,1022.433289 
	C574.146912,1022.493469 591.492676,1005.292358 591.537048,979.623840 
	C591.567261,962.124512 591.554077,944.625244 591.589111,927.125916 
	C591.592590,925.368408 591.796021,923.611206 591.904053,921.895081 
	C615.591553,921.895081 638.664368,921.895081 662.181885,921.895081 
	C662.181885,924.241211 662.181702,926.208862 662.181946,928.176575 
	C662.184448,945.676025 662.120178,963.175842 662.205933,980.674927 
	C662.319580,1003.852234 678.243103,1021.154907 701.401123,1022.213684 
	C717.197205,1022.935974 733.065918,1022.686951 748.880859,1022.191101 
	C762.395386,1021.767395 772.584106,1012.181274 774.992981,998.841064 
	C777.367188,985.692871 772.891663,974.247375 765.766541,962.755798 
M733.129639,253.629990 
	C736.060669,249.605820 739.190857,245.709091 741.868408,241.522797 
	C744.730591,237.047913 743.952148,235.421890 738.806213,234.322693 
	C711.400391,228.468658 683.657959,225.328613 655.680969,224.086533 
	C623.849670,222.673340 592.073364,223.512573 560.442749,227.297638 
	C545.760742,229.054565 531.209045,231.914276 516.611694,234.353928 
	C513.434143,234.884979 511.063843,236.167114 513.136230,240.078033 
	C521.908264,256.631897 534.956543,266.843628 554.301819,266.941345 
	C570.115967,267.021210 585.933716,266.258453 601.748901,266.294128 
	C634.552979,266.368103 667.357117,266.660339 700.159851,266.997009 
	C712.805359,267.126770 723.638916,263.046173 733.129639,253.629990 
M329.367065,538.809326 
	C328.834015,533.176086 327.869873,527.545288 327.838013,521.909241 
	C327.633514,485.761810 327.614502,449.613281 327.592621,413.465088 
	C327.590149,409.384644 327.950623,405.303986 328.162567,400.803040 
	C315.294159,402.754547 305.686890,409.230347 297.740692,418.372467 
	C284.061371,434.110596 279.148193,452.928497 278.674500,473.331512 
	C278.135834,496.531708 281.508148,518.557922 297.022858,537.074951 
	C304.958252,546.546021 314.840057,553.043091 327.068298,555.551697 
	C332.003998,556.564209 332.789398,555.673401 331.834839,550.919800 
	C331.080750,547.164307 330.301270,543.413818 329.367065,538.809326 
M976.011353,460.441132 
	C974.089111,444.677704 968.524170,430.397339 958.023376,418.379883 
	C950.094238,409.305328 940.515564,402.732513 927.710327,400.935211 
	C927.856018,403.791138 928.081604,406.239288 928.090759,408.688232 
	C928.222168,443.826996 928.612732,478.968689 928.271973,514.103149 
	C928.158020,525.854675 926.392212,537.616943 924.933594,549.318481 
	C924.062683,556.305115 924.377136,557.097107 931.243896,555.162842 
	C948.372742,550.337952 959.973267,538.928711 967.772339,523.381714 
	C977.651855,503.687347 977.661377,482.595703 976.011353,460.441132 
z"/>
<path fill="#0898F7" opacity="1.000000" stroke="none" 
	d="
M765.949951,963.066040 
	C772.891663,974.247375 777.367188,985.692871 774.992981,998.841064 
	C772.584106,1012.181274 762.395386,1021.767395 748.880859,1022.191101 
	C733.065918,1022.686951 717.197205,1022.935974 701.401123,1022.213684 
	C678.243103,1021.154907 662.319580,1003.852234 662.205933,980.674927 
	C662.120178,963.175842 662.184448,945.676025 662.181946,928.176575 
	C662.181702,926.208862 662.181885,924.241211 662.181885,921.895081 
	C638.664368,921.895081 615.591553,921.895081 591.904053,921.895081 
	C591.796021,923.611206 591.592590,925.368408 591.589111,927.125916 
	C591.554077,944.625244 591.567261,962.124512 591.537048,979.623840 
	C591.492676,1005.292358 574.146912,1022.493469 548.441895,1022.433289 
	C536.275757,1022.404785 524.088013,1021.986389 511.947540,1022.550415 
	C483.297638,1023.881592 472.503326,1001.446716 480.153503,978.593445 
	C482.934052,970.286987 488.413300,962.779358 493.305634,955.330566 
	C495.605682,951.828613 497.185303,948.663513 497.129639,944.394348 
	C496.942932,930.063904 497.174530,915.727417 496.917938,901.399109 
	C496.880341,899.300110 495.601624,896.578674 493.987854,895.247986 
	C462.836517,869.561707 447.001678,836.429504 445.370300,796.280823 
	C445.289185,794.285095 445.209167,792.289124 445.087097,790.295776 
	C445.068970,790.000305 444.819916,789.718933 444.988770,790.060791 
	C431.845032,787.603027 418.976013,785.850708 406.455200,782.710144 
	C384.827148,777.285339 365.385132,767.283569 348.669250,752.299438 
	C347.569061,751.313171 346.312866,750.434753 344.997559,749.764465 
	C321.437927,737.757629 306.298920,710.993103 308.293030,684.791016 
	C309.629730,667.227112 320.600311,653.311462 336.795959,649.721924 
	C350.735504,646.632324 363.053772,650.916260 372.883545,660.890259 
	C387.426514,675.646606 393.454865,694.086731 393.397003,714.494751 
	C393.382507,719.602722 394.879547,723.317139 398.161041,726.969666 
	C410.584442,740.797729 425.796936,749.082214 444.804779,751.413879 
	C447.871246,716.338562 463.097351,688.271484 491.924683,666.885498 
	C488.889313,666.227966 486.603271,665.681580 484.297058,665.240723 
	C443.818542,657.503601 408.818970,639.692871 381.098541,608.734741 
	C357.712006,582.616638 346.966492,551.472473 346.422089,516.841064 
	C345.895630,483.350494 346.070587,449.843536 346.334503,416.346924 
	C346.975067,335.042084 405.721466,261.528900 484.834869,242.699539 
	C492.605499,240.850082 492.535645,240.886078 496.238434,248.074570 
	C509.332184,273.494354 529.683228,286.759552 558.805542,286.556824 
	C604.968140,286.235474 651.136108,286.252167 697.298889,286.564880 
	C725.745605,286.757568 745.944641,274.126862 758.951416,249.224533 
	C759.568298,248.043610 760.282410,246.901474 760.778198,245.671539 
	C762.187805,242.174652 764.395264,241.091736 768.241699,242.033234 
	C817.122070,253.997498 855.547791,280.615204 882.090210,323.594971 
	C901.103516,354.382782 910.464661,387.904419 909.918701,424.267090 
	C909.483398,453.259491 909.714966,482.264618 909.888367,511.262695 
	C910.047729,537.906921 905.333557,563.342346 891.762695,586.605652 
	C874.557495,616.098755 849.596130,636.993774 818.740173,650.951355 
	C809.676819,655.051208 800.209473,658.452148 790.647644,661.200745 
	C781.248840,663.902466 771.494995,665.368652 761.398865,667.481201 
	C762.560608,668.499939 763.581970,669.442322 764.655334,670.321167 
	C765.427307,670.953247 766.400696,671.380188 767.059631,672.103394 
	C779.369446,685.615479 795.042725,694.822632 809.449219,705.697449 
	C836.940186,726.449158 855.906311,754.022766 870.043335,785.118042 
	C871.970337,789.356628 873.867432,793.628113 875.431885,798.008057 
	C878.171387,805.677429 881.674622,812.512817 887.226074,818.922363 
	C902.055786,836.043884 903.307129,864.125000 891.360046,883.056213 
	C876.926514,905.927490 845.568665,906.488831 830.973328,883.684692 
	C818.660217,864.446472 819.330505,844.434204 829.445679,824.295837 
	C830.724670,821.749451 831.374023,818.242676 830.786987,815.509094 
	C827.326050,799.394409 820.668091,784.583435 811.344971,770.983887 
	C810.593262,769.887451 809.754395,768.844910 808.885254,767.838379 
	C808.610901,767.520508 808.106018,767.401672 807.022400,766.832092 
	C807.022400,776.370056 807.002747,785.432434 807.025879,794.494629 
	C807.117798,830.485229 794.133423,861.043823 768.813110,886.468018 
	C767.052368,888.235962 765.343262,890.239685 763.214844,891.422363 
	C756.745728,895.016724 755.656250,900.494507 755.957092,907.347961 
	C756.460938,918.826477 756.394897,930.349060 756.055237,941.837891 
	C755.876770,947.873535 757.083130,952.938293 761.550415,957.184631 
	C763.216064,958.767883 764.376038,960.883118 765.949951,963.066040 
M680.500000,628.186707 
	C703.977478,627.845032 727.591919,628.999634 750.905457,626.866211 
	C808.556458,621.590698 859.222961,576.278137 873.197205,519.835632 
	C878.108215,499.999969 878.096497,479.891296 877.662659,459.761169 
	C877.408875,447.986053 877.109497,436.004639 874.824341,424.515076 
	C862.229736,361.190063 807.087097,316.130890 742.631287,316.031555 
	C666.475220,315.914185 590.318726,315.870941 514.162720,316.004517 
	C454.335724,316.109467 404.474548,352.222687 385.726929,409.103485 
	C375.131256,441.251007 376.426514,474.507507 381.158264,507.087280 
	C391.329773,577.121887 452.265320,628.136841 523.021362,628.155212 
	C575.180908,628.168701 627.340454,628.176575 680.500000,628.186707 
M470.908325,823.547546 
	C482.129456,865.981873 522.010620,899.037170 564.874939,899.882141 
	C605.339172,900.679688 645.843384,900.732788 686.307068,899.942322 
	C733.980957,899.010925 776.464050,862.020020 783.580750,814.879761 
	C786.243530,797.241943 785.479187,779.051758 785.754456,761.105408 
	C785.868530,753.671204 785.304871,746.078552 783.861572,738.793274 
	C776.236084,700.300842 744.821960,672.041626 705.511719,671.139343 
	C652.901428,669.931763 600.224182,669.880493 547.613037,671.033508 
	C507.079376,671.921997 473.917755,702.133667 468.182617,742.322327 
	C465.802185,759.003174 466.555756,776.218018 466.907410,793.168823 
	C467.112518,803.056946 469.340942,812.903198 470.908325,823.547546 
z"/>
<path fill="#0998F6" opacity="1.000000" stroke="none" 
	d="
M732.879639,253.881073 
	C723.638916,263.046173 712.805359,267.126770 700.159851,266.997009 
	C667.357117,266.660339 634.552979,266.368103 601.748901,266.294128 
	C585.933716,266.258453 570.115967,267.021210 554.301819,266.941345 
	C534.956543,266.843628 521.908264,256.631897 513.136230,240.078033 
	C511.063843,236.167114 513.434143,234.884979 516.611694,234.353928 
	C531.209045,231.914276 545.760742,229.054565 560.442749,227.297638 
	C592.073364,223.512573 623.849670,222.673340 655.680969,224.086533 
	C683.657959,225.328613 711.400391,228.468658 738.806213,234.322693 
	C743.952148,235.421890 744.730591,237.047913 741.868408,241.522797 
	C739.190857,245.709091 736.060669,249.605820 732.879639,253.881073 
z"/>
<path fill="#0897F7" opacity="1.000000" stroke="none" 
	d="
M329.450073,539.235229 
	C330.301270,543.413818 331.080750,547.164307 331.834839,550.919800 
	C332.789398,555.673401 332.003998,556.564209 327.068298,555.551697 
	C314.840057,553.043091 304.958252,546.546021 297.022858,537.074951 
	C281.508148,518.557922 278.135834,496.531708 278.674500,473.331512 
	C279.148193,452.928497 284.061371,434.110596 297.740692,418.372467 
	C305.686890,409.230347 315.294159,402.754547 328.162567,400.803040 
	C327.950623,405.303986 327.590149,409.384644 327.592621,413.465088 
	C327.614502,449.613281 327.633514,485.761810 327.838013,521.909241 
	C327.869873,527.545288 328.834015,533.176086 329.450073,539.235229 
z"/>
<path fill="#0998F6" opacity="1.000000" stroke="none" 
	d="
M976.060913,460.884521 
	C977.661377,482.595703 977.651855,503.687347 967.772339,523.381714 
	C959.973267,538.928711 948.372742,550.337952 931.243896,555.162842 
	C924.377136,557.097107 924.062683,556.305115 924.933594,549.318481 
	C926.392212,537.616943 928.158020,525.854675 928.271973,514.103149 
	C928.612732,478.968689 928.222168,443.826996 928.090759,408.688232 
	C928.081604,406.239288 927.856018,403.791138 927.710327,400.935211 
	C940.515564,402.732513 950.094238,409.305328 958.023376,418.379883 
	C968.524170,430.397339 974.089111,444.677704 976.060913,460.884521 
z"/>
<path fill="#FDFEFE" opacity="1.000000" stroke="none" 
	d="
M680.000000,628.186829 
	C627.340454,628.176575 575.180908,628.168701 523.021362,628.155212 
	C452.265320,628.136841 391.329773,577.121887 381.158264,507.087280 
	C376.426514,474.507507 375.131256,441.251007 385.726929,409.103485 
	C404.474548,352.222687 454.335724,316.109467 514.162720,316.004517 
	C590.318726,315.870941 666.475220,315.914185 742.631287,316.031555 
	C807.087097,316.130890 862.229736,361.190063 874.824341,424.515076 
	C877.109497,436.004639 877.408875,447.986053 877.662659,459.761169 
	C878.096497,479.891296 878.108215,499.999969 873.197205,519.835632 
	C859.222961,576.278137 808.556458,621.590698 750.905457,626.866211 
	C727.591919,628.999634 703.977478,627.845032 680.000000,628.186829 
M514.118164,510.994354 
	C532.272095,507.469635 544.459351,494.467865 546.460022,476.490967 
	C548.057007,462.141632 540.097534,446.981659 527.144775,439.702118 
	C513.761353,432.180511 496.894257,433.131317 485.384277,442.475586 
	C472.799408,452.692535 467.376068,465.912476 471.257996,481.898010 
	C475.615692,499.843018 491.893250,513.237610 514.118164,510.994354 
M785.083740,484.513977 
	C791.399780,462.383423 778.481812,440.208252 756.524536,435.488831 
	C734.744202,430.807404 713.995605,445.703339 710.685486,468.397858 
	C708.033325,486.581177 720.823364,505.444550 738.954590,510.090515 
	C758.479492,515.093506 777.439697,504.852325 785.083740,484.513977 
z"/>
<path fill="#FDFDFE" opacity="1.000000" stroke="none" 
	d="
M470.783691,823.157898 
	C469.340942,812.903198 467.112518,803.056946 466.907410,793.168823 
	C466.555756,776.218018 465.802185,759.003174 468.182617,742.322327 
	C473.917755,702.133667 507.079376,671.921997 547.613037,671.033508 
	C600.224182,669.880493 652.901428,669.931763 705.511719,671.139343 
	C744.821960,672.041626 776.236084,700.300842 783.861572,738.793274 
	C785.304871,746.078552 785.868530,753.671204 785.754456,761.105408 
	C785.479187,779.051758 786.243530,797.241943 783.580750,814.879761 
	C776.464050,862.020020 733.980957,899.010925 686.307068,899.942322 
	C645.843384,900.732788 605.339172,900.679688 564.874939,899.882141 
	C522.010620,899.037170 482.129456,865.981873 470.783691,823.157898 
M639.927307,731.703369 
	C634.980835,726.105225 628.883179,724.362122 621.902893,726.921997 
	C615.033142,729.441223 611.998840,734.718140 611.992798,743.098450 
	C611.987976,749.695740 611.991821,756.293091 611.991821,763.142090 
	C604.976135,763.142090 598.667725,763.094910 592.360291,763.152588 
	C581.647217,763.250610 574.828430,769.618103 574.854919,779.417114 
	C574.879944,788.676636 582.002075,795.085999 592.344543,795.123169 
	C598.774292,795.146301 605.204102,795.127502 611.939148,795.127502 
	C611.939148,802.808044 611.875977,809.776184 611.957153,816.742615 
	C612.035950,823.505981 616.067688,829.029663 622.276428,831.139587 
	C632.800415,834.716125 642.941589,827.647400 643.104248,816.529297 
	C643.207764,809.454041 643.123535,802.375977 643.123535,795.105408 
	C650.627075,795.105408 657.280762,795.180603 663.931030,795.061829 
	C666.056580,795.023865 668.292908,794.806091 670.271912,794.095215 
	C677.284058,791.576416 681.683228,784.176208 680.613647,777.147278 
	C679.387207,769.087708 673.507751,763.479736 665.427002,763.197266 
	C658.164429,762.943420 650.885864,763.143799 643.122192,763.143799 
	C643.122192,755.939148 643.423950,749.304199 643.000000,742.716003 
	C642.773987,739.204224 641.293335,735.773132 639.927307,731.703369 
z"/>
<path fill="#05BF75" opacity="1.000000" stroke="none" 
	d="
M513.661377,511.034546 
	C491.893250,513.237610 475.615692,499.843018 471.257996,481.898010 
	C467.376068,465.912476 472.799408,452.692535 485.384277,442.475586 
	C496.894257,433.131317 513.761353,432.180511 527.144775,439.702118 
	C540.097534,446.981659 548.057007,462.141632 546.460022,476.490967 
	C544.459351,494.467865 532.272095,507.469635 513.661377,511.034546 
z"/>
<path fill="#06C076" opacity="1.000000" stroke="none" 
	d="
M784.984253,484.897766 
	C777.439697,504.852325 758.479492,515.093506 738.954590,510.090515 
	C720.823364,505.444550 708.033325,486.581177 710.685486,468.397858 
	C713.995605,445.703339 734.744202,430.807404 756.524536,435.488831 
	C778.481812,440.208252 791.399780,462.383423 784.984253,484.897766 
z"/>
<path fill="#06C076" opacity="1.000000" stroke="none" 
	d="
M640.153076,732.004517 
	C641.293335,735.773132 642.773987,739.204224 643.000000,742.716003 
	C643.423950,749.304199 643.122192,755.939148 643.122192,763.143799 
	C650.885864,763.143799 658.164429,762.943420 665.427002,763.197266 
	C673.507751,763.479736 679.387207,769.087708 680.613647,777.147278 
	C681.683228,784.176208 677.284058,791.576416 670.271912,794.095215 
	C668.292908,794.806091 666.056580,795.023865 663.931030,795.061829 
	C657.280762,795.180603 650.627075,795.105408 643.123535,795.105408 
	C643.123535,802.375977 643.207764,809.454041 643.104248,816.529297 
	C642.941589,827.647400 632.800415,834.716125 622.276428,831.139587 
	C616.067688,829.029663 612.035950,823.505981 611.957153,816.742615 
	C611.875977,809.776184 611.939148,802.808044 611.939148,795.127502 
	C605.204102,795.127502 598.774292,795.146301 592.344543,795.123169 
	C582.002075,795.085999 574.879944,788.676636 574.854919,779.417114 
	C574.828430,769.618103 581.647217,763.250610 592.360291,763.152588 
	C598.667725,763.094910 604.976135,763.142090 611.991821,763.142090 
	C611.991821,756.293091 611.987976,749.695740 611.992798,743.098450 
	C611.998840,734.718140 615.033142,729.441223 621.902893,726.921997 
	C628.883179,724.362122 634.980835,726.105225 640.153076,732.004517 
z"/>
</svg>